<?xml version="1.0" encoding="utf-8"?>
<!-- Generator: Adobe Illustrator 27.5.0, SVG Export Plug-In . SVG Version: 6.00 Build 0)  -->
<svg version="1.1" xmlns="http://www.w3.org/2000/svg" xmlns:xlink="http://www.w3.org/1999/xlink" x="0px" y="0px"
	 viewBox="0 0 500 500" style="enable-background:new 0 0 500 500;" xml:space="preserve">
<g id="BACKGROUND">
	<rect style="fill:#FEDCD6;" width="500" height="500"/>
	<path style="fill:#FECAC1;" d="M500,189.65V500H0V290.61c1.53-0.25,3.1-0.47,4.71-0.67c23.84-2.97,47.99,2.76,71.34,6.88
		c99.85,17.61,205.1,3.22,296.55-40.56C415.84,235.57,455.99,208.55,500,189.65z"/>
</g>
<g id="OBJECTS">
	<g>
		<g>
			<path style="fill:#DA4139;" d="M469.022,354.416c0,0,0.562,29.525-18.215,56.837c-18.777,27.312-53.316,39.667-53.316,39.667
				s-42.778-40.484-76.048-71.742c-7.84-7.372-15.158-14.236-21.257-19.927c-0.292-2.837-1.845-11.173-4.101-22.812
				c-4.115-21.278-10.583-53.621-15.964-83.616c3.463-6.41,7.416-12.609,10.35-19.257c0.542-1.223,1.046-2.471,1.512-3.731
				c0.177-0.48,0.347-0.959,0.502-1.437c2.257,2.277,4.639,4.66,7.104,7.086c9.244,9.104,19.68,18.899,29.255,26.762
				c6.045,4.976,11.749,9.182,16.59,11.95C366.723,286.385,469.022,354.416,469.022,354.416z"/>
		</g>
		<g>
			<path style="fill:#DA4139;" d="M121.661,254.877c11.634-4.911,32.024,8.294,41.352,14.411c0.016,0.013,0.039,0.024,0.056,0.037
				c8.262,5.413,16.77,13.187,16.396,23.059c-0.12,3.327-1.406,6.72-3.977,8.832c-0.324,0.267-0.652,0.498-0.989,0.716
				c-5.102,3.211-12.216,1.053-17.807-1.692C148.402,296.165,97.871,264.903,121.661,254.877z"/>
			<path style="fill:#DA4139;" d="M176.087,268.001c-11.249,5.638-32.366-6.114-42.113-11.623c-0.051-0.034-0.1-0.062-0.15-0.089
				c-8.599-4.869-17.595-12.064-17.867-21.939c-0.098-3.327,0.964-6.798,3.392-9.073c1.335-1.253,2.903-2.028,4.6-2.437
				c4.442-1.079,9.774,0.345,14.22,2.183C146.705,228.541,199.171,256.435,176.087,268.001z"/>
			<path style="fill:#DA4139;" d="M174.157,241.413c-11.853,4.438-31.748-9.649-40.789-16.113c-1.253-0.895-2.511-1.849-3.729-2.856
				c-6.646-5.462-12.377-12.534-11.727-20.855c0.262-3.313,1.685-6.651,4.339-8.657c1.242-0.941,2.616-1.516,4.059-1.806
				c4.712-0.961,10.205,1.113,14.683,3.543C149.101,199.07,198.326,232.352,174.157,241.413z"/>
			<path style="fill:#DA4139;" d="M170.389,206.551c-11.853,4.438-31.748-9.649-40.789-16.113c-1.253-0.896-2.511-1.849-3.73-2.856
				c-6.646-5.462-12.376-12.534-11.727-20.855c0.262-3.313,1.685-6.651,4.339-8.657c1.242-0.941,2.616-1.516,4.059-1.806
				c4.712-0.961,10.205,1.113,14.682,3.542C145.334,164.207,194.558,197.49,170.389,206.551z"/>
		</g>
		<g>
			<g>
				<path style="fill:#232259;" d="M300.947,86.129l0.081,10.662l1.958,259.432l0.222,29.708
					c0.067,8.456-6.732,15.354-15.188,15.421l-130.386,1c-8.449,0.059-15.354-6.739-15.421-15.188l-0.232-30.768l-1.957-259.425
					l-0.054-6.859c-0.073-9.973,7.948-18.123,17.921-18.195l127.636-0.976C293.975,70.876,300.881,77.674,300.947,86.129z"/>
				<polygon style="fill:#97B8FE;" points="293.976,103.871 297.073,356.727 149.679,356.889 148.497,260.254 146.581,104.032 
					284.136,103.881 				"/>
				
					<path style="fill:none;stroke:#FFFFFF;stroke-width:2.8947;stroke-linecap:round;stroke-linejoin:round;stroke-miterlimit:10;" d="
					M225.659,87.85c-0.296-3.479-3.357-6.059-6.836-5.763c-3.479,0.296-6.059,3.357-5.763,6.836
					c0.296,3.479,3.357,6.059,6.836,5.762C223.375,94.389,225.955,91.329,225.659,87.85z"/>
				<path style="fill:#82A9FE;" d="M293.976,103.871l3.097,252.856l-147.395,0.161l-1.182-96.634
					c3.513-1.389,6.917-3.044,10.225-4.873c9.725-5.375,18.517-12.312,26.995-19.455c16.29-13.728,32.039-28.274,45.187-45.046
					c20.996-26.781,34.764-58.429,53.233-86.999L293.976,103.871z"/>
			</g>
			<g>
				<g>
					<path style="fill:#FFFFFF;" d="M272.685,223.903c2.448,28.727-18.858,54.002-47.585,56.449
						c-12.849,1.095-25.007-2.561-34.735-9.511c-2.381-1.693-4.621-3.594-6.678-5.663c-8.378-8.394-13.95-19.67-15.036-32.412
						c-2.448-28.727,18.858-53.994,47.586-56.442c15.878-1.353,30.695,4.546,41.191,14.945c0.484,0.482,0.961,0.964,1.425,1.462
						C266.556,200.988,271.652,211.782,272.685,223.903z"/>
					<g>
						<path style="fill:#3E4BE0;" d="M212.959,262.056c-2.718,0-5.45-0.923-7.69-2.812l-16.088-13.562
							c-5.042-4.25-5.684-11.783-1.434-16.825c4.25-5.043,11.785-5.683,16.825-1.434l6.958,5.865l23.227-27.553
							c4.251-5.042,11.784-5.683,16.826-1.434c5.042,4.25,5.684,11.783,1.434,16.825l-30.923,36.683
							C219.733,260.612,216.357,262.056,212.959,262.056z"/>
					</g>
				</g>
			</g>
		</g>
		<g>
			<path style="fill:#DA4139;" d="M327.571,286.496c-0.386,5.618,1.079,13.01,2.904,20.953c3.275,14.225,7.702,30.218,4.748,40.98
				c-0.525,1.933-1.291,3.691-2.342,5.247c-6.593,9.735-29.497-9.746-36.166-16.579c-0.215-0.221-0.422-0.436-0.63-0.658
				c-6.575-6.841-12.346-14.483-16.615-22.988c-7.506-14.954-10.117-32.816-4.749-48.664c1.403-4.165,3.311-8.104,5.401-11.965
				c3.463-6.41,7.416-12.609,10.35-19.257c0.542-1.223,1.046-2.471,1.512-3.731c0.177-0.48,0.347-0.959,0.502-1.437
				c2.988-8.832,3.937-18.326,5.689-27.503c1.281-6.697,2.985-13.219,6.231-19.189c3.031-5.597,8.924-11.016,15.022-9.182
				c6.418,1.937,8.053,10.121,8.47,16.811c1.508,24.268,1.825,48.608,0.947,72.912C328.547,270.333,328.124,278.416,327.571,286.496
				z"/>
		</g>
	</g>
	<g>
		<path style="fill:#FEAC37;" d="M342.972,381.45H233.507c-8.62,0-15.608-6.988-15.608-15.608v-52.368
			c0-8.62,6.988-15.608,15.608-15.608h109.465c8.62,0,15.608,6.988,15.608,15.608v52.368
			C358.58,374.462,351.592,381.45,342.972,381.45z"/>
		<rect x="217.899" y="317.57" style="fill:#3E4BE0;" width="140.681" height="22.089"/>
		<rect x="229.108" y="347.675" style="fill:#FFFFFF;" width="24.904" height="6.93"/>
		<rect x="267.439" y="347.675" style="fill:#FFFFFF;" width="81.142" height="6.93"/>
	</g>
	<g>
		<path style="fill:#F5F5F5;stroke:#D7D7D7;stroke-width:1.5969;stroke-linecap:round;stroke-miterlimit:10;" d="M123.166,474.271"
			/>
		<g>
			<g>
				<g>
					<path style="fill:#FFFFFF;" d="M376.849,136.586c5.116,0.88,8.514,3.554,8.514,3.554l-3.504,6.25c0,0-3.448-2.543-7.084-2.695
						c-2.794-0.117-4.263,1.021-4.345,2.972c-0.087,2.084,3.183,3.554,7.148,5.408c3.876,1.85,8.083,5.358,7.888,10.014
						c-0.289,6.918-4.724,9.93-10.129,10.637l-0.269,6.43l-4.789-0.2l0.256-6.119c-7.611-0.718-11.956-5.164-11.956-5.164
						l4.317-6.572c0,0,4.578,4.189,8.525,4.354c1.729,0.072,5.063,0.034,5.2-3.247c0.111-2.661-3.612-3.927-7.693-6.186
						c-4.168-2.306-6.514-5.692-6.36-9.372c0.23-5.499,4.652-9.267,9.486-10.131l0.267-6.386l4.789,0.2L376.849,136.586z"/>
				</g>
			</g>
			<g>
				<path style="fill:#FFFFFF;" d="M373.519,192.376c-11.216,0-22.285-5.15-29.41-14.868c-11.87-16.191-8.355-39.02,7.836-50.89
					c16.19-11.869,39.021-8.354,50.89,7.836l0,0c11.87,16.191,8.354,39.02-7.836,50.89
					C388.525,190.09,380.989,192.376,373.519,192.376z M373.43,123.843c-6.598,0-13.251,2.019-18.968,6.21
					c-14.297,10.481-17.401,30.641-6.92,44.938c10.482,14.296,30.642,17.4,44.939,6.919c14.297-10.482,17.401-30.641,6.92-44.938
					l0,0C393.109,128.392,383.333,123.843,373.43,123.843z"/>
			</g>
		</g>
		<g>
			<g>
				<g>
					<path style="fill:#FFFFFF;" d="M414.602,78.359c3.5,0.453,5.884,2.173,5.884,2.173l-2.203,4.345c0,0-2.414-1.629-4.888-1.629
						c-1.901,0-2.866,0.815-2.866,2.142c0,1.418,2.263,2.323,5.009,3.47c2.685,1.146,5.642,3.41,5.642,6.578
						c0,4.707-2.927,6.879-6.578,7.513v4.375h-3.259v-4.164c-5.19-0.271-8.267-3.168-8.267-3.168l2.746-4.586
						c0,0,3.228,2.716,5.914,2.716c1.177,0,3.44-0.121,3.44-2.354c0-1.81-2.565-2.565-5.401-3.983
						c-2.897-1.448-4.586-3.681-4.586-6.185c0-3.741,2.897-6.427,6.155-7.151v-4.345h3.259V78.359z"/>
				</g>
			</g>
			<g>
				<path style="fill:#FFFFFF;" d="M412.908,117.066c-0.951,0-1.907-0.053-2.866-0.16c-6.752-0.753-12.807-4.089-17.049-9.396
					c-4.242-5.306-6.164-11.947-5.411-18.699c0.752-6.751,4.089-12.806,9.395-17.048c5.306-4.242,11.945-6.165,18.698-5.412
					c6.752,0.752,12.807,4.089,17.049,9.396l0,0c4.242,5.306,6.164,11.947,5.411,18.699c-0.752,6.752-4.089,12.806-9.396,17.048
					C424.188,115.134,418.653,117.066,412.908,117.066z M412.817,70.451c-4.783,0-9.391,1.608-13.182,4.639
					c-4.417,3.532-7.195,8.573-7.822,14.194c-0.626,5.622,0.974,11.15,4.506,15.568c3.532,4.418,8.573,7.196,14.194,7.823
					c5.615,0.625,11.149-0.973,15.568-4.506c4.417-3.532,7.195-8.573,7.822-14.194c0.626-5.621-0.974-11.15-4.506-15.567l0,0
					c-3.532-4.418-8.573-7.196-14.194-7.823C414.406,70.495,413.609,70.451,412.817,70.451z"/>
			</g>
		</g>
		<g>
			<g>
				<g>
					<path style="fill:#FFFFFF;" d="M90.638,403.833c5.39,0.697,9.061,3.346,9.061,3.346l-3.392,6.691c0,0-3.717-2.509-7.527-2.509
						c-2.927,0-4.414,1.255-4.414,3.299c0,2.184,3.485,3.578,7.713,5.344c4.135,1.766,8.689,5.251,8.689,10.129
						c0,7.249-4.507,10.594-10.13,11.57v6.737H85.62v-6.412c-7.992-0.418-12.732-4.879-12.732-4.879l4.228-7.063
						c0,0,4.972,4.182,9.107,4.182c1.812,0,5.297-0.186,5.297-3.624c0-2.788-3.95-3.95-8.317-6.134
						c-4.461-2.23-7.063-5.669-7.063-9.526c0-5.762,4.461-9.897,9.479-11.012v-6.691h5.018V403.833z"/>
				</g>
			</g>
			<g>
				<path style="fill:#FFFFFF;" d="M88.027,462.291c-1.421,0-2.85-0.079-4.284-0.239c-10.092-1.124-19.143-6.111-25.483-14.044
					c-13.09-16.373-10.419-40.343,5.955-53.434c16.373-13.089,40.344-10.417,53.434,5.956c6.341,7.931,9.214,17.857,8.089,27.949
					c-1.124,10.093-6.112,19.143-14.044,25.483C104.888,459.403,96.614,462.291,88.027,462.291z M87.92,390.524
					c-7.394,0-14.835,2.411-21.046,7.376c-14.539,11.624-16.912,32.909-5.288,47.449c5.631,7.043,13.667,11.472,22.629,12.471
					c8.963,0.997,17.776-1.553,24.819-7.184c7.043-5.631,11.472-13.667,12.471-22.629c0.998-8.962-1.552-17.776-7.183-24.819l0,0
					C107.664,394.86,97.834,390.524,87.92,390.524z"/>
			</g>
		</g>
		<g>
			<g>
				<path style="fill:#FFFFFF;" d="M100.768,372.888c-1.176,0-2.129-0.953-2.129-2.129v-14.67c0-1.176,0.953-2.129,2.129-2.129
					c1.176,0,2.129,0.953,2.129,2.129v14.67C102.897,371.935,101.944,372.888,100.768,372.888z"/>
			</g>
			<g>
				<path style="fill:#FFFFFF;" d="M108.102,365.553H93.433c-1.176,0-2.129-0.953-2.129-2.129s0.953-2.129,2.129-2.129h14.669
					c1.176,0,2.129,0.953,2.129,2.129S109.278,365.553,108.102,365.553z"/>
			</g>
		</g>
		<g>
			<g>
				<path style="fill:#FFFFFF;" d="M56.024,375.697c-1.176,0-2.129-0.953-2.129-2.129v-35.51c0-1.176,0.953-2.129,2.129-2.129
					s2.129,0.953,2.129,2.129v35.51C58.153,374.744,57.2,375.697,56.024,375.697z"/>
			</g>
			<g>
				<path style="fill:#FFFFFF;" d="M73.78,357.942h-35.51c-1.176,0-2.129-0.953-2.129-2.129c0-1.176,0.953-2.129,2.129-2.129h35.51
					c1.176,0,2.129,0.953,2.129,2.129C75.909,356.989,74.956,357.942,73.78,357.942z"/>
			</g>
		</g>
		<circle style="fill:#FFFFFF;" cx="95.595" cy="327.294" r="3.715"/>
		<path style="fill:#FFFFFF;" d="M35.411,399.367c0,2.052-1.663,3.715-3.715,3.715c-2.052,0-3.715-1.663-3.715-3.715
			c0-2.052,1.663-3.715,3.715-3.715C33.747,395.651,35.411,397.315,35.411,399.367z"/>
		<circle style="fill:#FFFFFF;" cx="156.523" cy="431.316" r="3.715"/>
		<circle style="fill:#FFFFFF;" cx="371.999" cy="99.929" r="3.715"/>
		<path style="fill:#FFFFFF;" d="M369.027,211.382c0,2.052-1.663,3.715-3.715,3.715s-3.715-1.663-3.715-3.715
			c0-2.052,1.663-3.715,3.715-3.715S369.027,209.331,369.027,211.382z"/>
		<path style="fill:#FFFFFF;" d="M351.088,96.904c0,1.612-1.307,2.919-2.919,2.919c-1.612,0-2.919-1.307-2.919-2.919
			c0-1.612,1.307-2.919,2.919-2.919C349.781,93.985,351.088,95.292,351.088,96.904z"/>
		<circle style="fill:#FFFFFF;" cx="77.71" cy="331.699" r="2.919"/>
		<circle style="fill:#FFFFFF;" cx="142.406" cy="453.607" r="2.919"/>
		<circle style="fill:#FFFFFF;" cx="447.044" cy="118.505" r="2.919"/>
	</g>
</g>
</svg>
