<?xml version="1.0" encoding="utf-8"?>
<!-- Generator: Adobe Illustrator 27.5.0, SVG Export Plug-In . SVG Version: 6.00 Build 0)  -->
<svg version="1.1" xmlns="http://www.w3.org/2000/svg" xmlns:xlink="http://www.w3.org/1999/xlink" x="0px" y="0px"
	 viewBox="0 0 500 500" style="enable-background:new 0 0 500 500;" xml:space="preserve">
<g id="BACKGROUND">
	<rect style="fill:#E2F5F3;" width="500" height="500"/>
</g>
<g id="OBJECT">
	<g>
		<g>
			
				<ellipse transform="matrix(0.7071 -0.7071 0.7071 0.7071 -95.2864 226.0443)" style="fill:#FFFFFF;" cx="225.216" cy="228.043" rx="93.182" ry="93.182"/>
			<g>
				<ellipse style="fill:#C8E8E3;" cx="368.315" cy="422.449" rx="88.625" ry="7.602"/>
				<ellipse style="fill:#C8E8E3;" cx="156.11" cy="368.953" rx="119.521" ry="7.602"/>
				<g>
					<g>
						<g>
							<path style="fill:#04BFAD;" d="M339.73,224.301h-6.082c0-59.888-48.723-108.611-108.611-108.611
								c-49.419,0-92.638,33.353-105.099,81.107l-5.885-1.535c13.16-50.432,58.798-85.654,110.984-85.654
								C288.279,109.608,339.73,161.059,339.73,224.301z"/>
						</g>
						<path style="fill:#02AA95;" d="M336.69,224.301c0-61.664-49.988-111.652-111.652-111.652
							c-51.896,0-95.523,35.406-108.042,83.38l0.001,0l3.047,0.392c12.59-47.552,55.704-80.732,104.993-80.732
							c59.757,0,108.394,48.511,108.606,108.219l3.045,0.392H336.69z"/>
						<g>
							<g>
								<path style="fill:#233154;" d="M427.12,422.449H309.574c-6.008,0-10.879-4.871-10.879-10.879V186.249
									c0-6.008,4.871-10.879,10.879-10.879H427.12c6.008,0,10.879,4.871,10.879,10.879v225.322
									C437.998,417.579,433.128,422.449,427.12,422.449z"/>
								<path style="fill:#E2F5F3;" d="M314.343,185.528h21.788c2.64,0,4.781,2.141,4.781,4.781v0c0,2.2,1.783,3.983,3.983,3.983
									h46.903c2.2,0,3.983-1.783,3.983-3.983v0c0-2.64,2.141-4.781,4.781-4.781h21.788c3.032,0,5.49,2.458,5.49,5.49v215.783
									c0,3.032-2.458,5.491-5.491,5.491H314.343c-3.032,0-5.49-2.458-5.49-5.49V191.018
									C308.853,187.986,311.311,185.528,314.343,185.528z"/>
								<path style="fill:#D5EFEC;" d="M314.343,412.292H422.35c3.032,0,5.491-2.458,5.491-5.491v-12.27H308.853v12.271
									C308.853,409.834,311.311,412.292,314.343,412.292z"/>
								<path style="fill:#2C3E60;" d="M309.574,175.37h58.773v247.079h-58.773c-6.008,0-10.879-4.871-10.879-10.879V186.249
									C298.695,180.241,303.566,175.37,309.574,175.37z"/>
								<path style="fill:#F0FFFD;" d="M314.343,185.528h21.788c2.64,0,4.781,2.141,4.781,4.781v0c0,2.2,1.783,3.983,3.983,3.983
									h23.452v218h-54.003c-3.032,0-5.491-2.458-5.491-5.491V191.018C308.853,187.986,311.311,185.528,314.343,185.528z"/>
								<path style="fill:#E2F5F3;" d="M308.853,394.531v12.27c0,3.032,2.458,5.491,5.491,5.491h54.003v-17.76H308.853z"/>
								<path style="fill:#1A2844;" d="M356.869,189.008h22.956c0.957,0,1.74-0.783,1.74-1.74l0,0c0-0.957-0.783-1.74-1.74-1.74
									h-22.956c-0.957,0-1.74,0.783-1.74,1.74l0,0C355.129,188.225,355.912,189.008,356.869,189.008z"/>
								<circle style="fill:#1A2844;" cx="371.005" cy="181.439" r="1.708"/>
								<circle style="fill:#1A2844;" cx="365.689" cy="181.439" r="1.708"/>
							</g>
							<g>
								<g>
									<circle style="fill:none;stroke:#2C3E60;stroke-miterlimit:10;" cx="368.347" cy="402.81" r="2.534"/>
									<g>
										<g>
											<polyline style="fill:none;stroke:#2C3E60;stroke-miterlimit:10;" points="402.965,405.344 400.884,402.81 
												402.965,400.275 											"/>
										</g>
										<g>
											<line style="fill:none;stroke:#2C3E60;stroke-miterlimit:10;" x1="333.729" y1="400.52" x2="339.316" y2="400.52"/>
											<line style="fill:none;stroke:#2C3E60;stroke-miterlimit:10;" x1="333.729" y1="402.81" x2="339.316" y2="402.81"/>
											<line style="fill:none;stroke:#2C3E60;stroke-miterlimit:10;" x1="333.729" y1="405.099" x2="339.316" y2="405.099"/>
										</g>
									</g>
								</g>
							</g>
						</g>
						<g>
							<g>
								<g>
									<path style="fill:#E6E7E8;" d="M241.904,198.162h-33.732v-20.261c0-9.3,7.566-16.866,16.866-16.866
										c9.3,0,16.866,7.566,16.866,16.866V198.162z M212.849,193.485h24.378v-15.583c0-6.721-5.468-12.189-12.189-12.189
										c-6.721,0-12.189,5.468-12.189,12.189V193.485z"/>
								</g>
								<g>
									<path style="fill:#D1D3D4;" d="M225.038,164.024c-6.721,0-12.189,5.468-12.189,12.189v1.689
										c0-6.721,5.468-12.189,12.189-12.189s12.189,5.468,12.189,12.189v-1.689C237.226,169.492,231.758,164.024,225.038,164.024z
										"/>
									<rect x="208.171" y="196.473" style="fill:#D1D3D4;" width="33.732" height="1.689"/>
								</g>
								<path style="fill:#D1D3D4;" d="M237.226,177.902v15.583h-12.189v4.677h16.866v-20.261c0-9.3-7.566-16.866-16.866-16.866
									v4.677C231.758,165.713,237.226,171.181,237.226,177.902z"/>
								<path style="fill:#F7BF00;" d="M245.576,217.292h-41.078c-2.174,0-3.935-1.762-3.935-3.935v-27.502
									c0-2.174,1.762-3.935,3.935-3.935h41.078c2.174,0,3.935,1.762,3.935,3.935v27.502
									C249.512,215.53,247.75,217.292,245.576,217.292z"/>
								<path style="fill:#F7AB00;" d="M203.809,213.356v-27.502c0-2.174,1.762-3.935,3.935-3.935h-3.246
									c-2.174,0-3.935,1.762-3.935,3.935v27.502c0,2.174,1.762,3.935,3.935,3.935h3.246
									C205.571,217.292,203.809,215.53,203.809,213.356z"/>
								<path style="fill:#F7AB00;" d="M245.576,181.919h-20.539v35.373h20.539c2.174,0,3.935-1.762,3.935-3.936v-27.502
									C249.512,183.681,247.75,181.919,245.576,181.919z"/>
							</g>
							<g>
								<g>
									<path style="fill:#FFFFFF;" d="M225.038,192.807c-4.531,0-7.872,1.814-7.872,1.814c0,10.203,7.872,13.183,7.872,13.183
										s7.872-2.98,7.872-13.183C232.91,194.621,229.568,192.807,225.038,192.807z"/>
									<path style="fill:#FFFFFF;" d="M232.91,194.621c0,0-3.342-1.814-7.872-1.814v14.997
										C225.038,207.804,232.91,204.824,232.91,194.621z"/>
									<path style="fill:#FFFFFF;" d="M225.038,207.301c-0.503-0.225-2.079-1.009-3.634-2.617
										c-1.096-1.132-1.968-2.447-2.594-3.909c-0.751-1.754-1.147-3.727-1.179-5.87c0.339-0.162,1.015-0.462,1.938-0.759
										c1.242-0.4,3.199-0.877,5.469-0.877c3.679,0,6.572,1.238,7.407,1.636c-0.032,2.143-0.428,4.116-1.179,5.87
										c-0.625,1.461-1.498,2.776-2.594,3.909C227.117,206.292,225.54,207.076,225.038,207.301z"/>
									<path style="fill:#04BFAD;" d="M225.038,206.79c-0.596-0.289-1.961-1.042-3.302-2.428c-1.056-1.092-1.898-2.36-2.501-3.769
										c-0.691-1.615-1.073-3.428-1.135-5.394c0.36-0.161,0.913-0.387,1.61-0.612c1.211-0.39,3.117-0.855,5.327-0.855
										c3.258,0,5.891,1.002,6.937,1.467c-0.062,1.966-0.443,3.779-1.135,5.394c-0.603,1.409-1.445,2.677-2.501,3.769
										C226.998,205.748,225.634,206.501,225.038,206.79z"/>
								</g>
								<path style="fill:#00A79D;" d="M225.038,206.79c0.596-0.289,1.961-1.042,3.302-2.428c1.056-1.091,1.898-2.36,2.501-3.769
									c0.691-1.615,1.072-3.428,1.135-5.394c-1.046-0.465-3.679-1.467-6.937-1.467V206.79z"/>
								<g>
									<path style="fill:#FFFFFF;" d="M228.283,197.869c0,0.106-0.037,0.195-0.111,0.269l-2.862,2.87l-0.538,0.539
										c-0.074,0.074-0.164,0.111-0.269,0.111c-0.106,0-0.195-0.037-0.269-0.11l-0.539-0.538l-1.435-1.431
										c-0.074-0.074-0.111-0.163-0.111-0.269c0-0.106,0.037-0.195,0.11-0.269l0.538-0.539c0.074-0.074,0.164-0.111,0.269-0.111
										c0.106,0,0.195,0.037,0.269,0.111l1.165,1.166l2.593-2.604c0.074-0.074,0.163-0.111,0.269-0.111
										c0.105,0,0.195,0.037,0.269,0.111l0.539,0.538C228.246,197.674,228.283,197.764,228.283,197.869z"/>
								</g>
							</g>
						</g>
						<g>
							<ellipse style="fill:#DCE6F9;" cx="154.66" cy="321.929" rx="42.7" ry="4.369"/>
							<g>
								<path style="fill:#D77637;" d="M213.898,367.573H60.252v-126.2h150.86c5.362,0,9.709,4.347,9.709,9.709v109.568
									C220.822,364.473,217.722,367.573,213.898,367.573z"/>
								<path style="fill:#FF945F;" d="M209.165,241.372H55.86c-4.012,0-7.265,3.252-7.265,7.265v0c0,4.012,3.252,7.265,7.265,7.265
									h153.305V241.372z"/>
								<rect x="127.534" y="241.372" style="fill:#F77F4B;" width="81.631" height="14.529"/>
								<path style="fill:#F77F4B;" d="M213.898,367.573h-6.919v-126.2h6.921c3.823,0,6.921,3.099,6.921,6.921v112.355
									C220.822,364.473,217.722,367.573,213.898,367.573z"/>
								<path style="fill:#C4581C;" d="M211.451,246.187L211.451,246.187H58.31c-1.353,0-2.45,1.097-2.45,2.45
									c0,1.353,1.097,2.45,2.45,2.45h145.439v4.815h7.703v111.671h2.448c0.864,0,1.689-0.166,2.452-0.455V251.087
									C216.35,248.381,214.157,246.187,211.451,246.187z"/>
								<g>
									<circle style="fill:#F7CE00;" cx="94.834" cy="246.878" r="25.088"/>
									<path style="fill:#F7BF00;" d="M119.922,246.878c0-13.856-11.232-25.088-25.088-25.088v50.176
										C108.69,271.966,119.922,260.734,119.922,246.878z"/>
									<circle style="fill:#F7BF00;" cx="94.834" cy="246.878" r="19.797"/>
									<path style="fill:#F7AE00;" d="M114.631,246.878c0-10.933-8.863-19.797-19.797-19.797v39.593
										C105.768,266.675,114.631,257.811,114.631,246.878z"/>
									
										<text transform="matrix(1 0 0 1 85.6256 257.2527)" style="fill:#FFE164; font-family:'Poppins-Bold'; font-size:29.0767px;">$</text>
									<path style="fill:#F7AE00;" d="M94.834,227.081c-10.933,0-19.797,8.863-19.797,19.797c0,10.933,8.863,19.797,19.797,19.797
										c10.933,0,19.797-8.863,19.797-19.797C114.631,235.945,105.768,227.081,94.834,227.081z M94.834,265.154
										c-10.094,0-18.276-8.182-18.276-18.276c0-10.094,8.183-18.276,18.276-18.276c10.094,0,18.276,8.182,18.276,18.276
										C113.11,256.972,104.928,265.154,94.834,265.154z"/>
									<path style="fill:#F79C00;" d="M111.25,235.809c-1.423-2.106-3.241-3.924-5.347-5.347
										c-3.16-2.135-6.968-3.381-11.068-3.381v1.52c10.094,0,18.276,8.182,18.276,18.276c0,10.094-8.183,18.276-18.276,18.276
										v1.52c7.092,0,13.294-3.741,16.79-9.345c1.894-3.036,3.006-6.61,3.006-10.452
										C114.631,242.778,113.384,238.969,111.25,235.809z"/>
								</g>
								<g>
									<circle style="fill:#F7CE00;" cx="142.983" cy="237.596" r="25.088"/>
									<path style="fill:#F7BF00;" d="M168.071,237.596c0-13.856-11.232-25.088-25.088-25.088v50.176
										C156.839,262.684,168.071,251.452,168.071,237.596z"/>
									<circle style="fill:#F7BF00;" cx="142.983" cy="237.596" r="19.797"/>
									<path style="fill:#F7AE00;" d="M162.78,237.596c0-10.933-8.863-19.797-19.797-19.797v39.593
										C153.916,257.393,162.78,248.529,162.78,237.596z"/>
									
										<text transform="matrix(1 0 0 1 133.774 247.971)" style="fill:#FFE164; font-family:'Poppins-Bold'; font-size:29.0767px;">$</text>
									<path style="fill:#F7AE00;" d="M142.983,217.799c-10.933,0-19.797,8.863-19.797,19.797
										c0,10.933,8.863,19.797,19.797,19.797c10.933,0,19.797-8.863,19.797-19.797
										C162.779,226.663,153.916,217.799,142.983,217.799z M142.983,255.872c-10.094,0-18.276-8.182-18.276-18.276
										c0-10.094,8.183-18.276,18.276-18.276c10.094,0,18.276,8.182,18.276,18.276
										C161.259,247.69,153.077,255.872,142.983,255.872z"/>
									<path style="fill:#F79C00;" d="M159.399,226.528c-1.423-2.106-3.241-3.924-5.347-5.347
										c-3.16-2.135-6.968-3.381-11.068-3.381v1.52c10.094,0,18.276,8.182,18.276,18.276c0,10.094-8.182,18.276-18.276,18.276
										v1.52c7.092,0,13.294-3.741,16.79-9.345c1.894-3.036,3.006-6.61,3.006-10.452
										C162.779,233.496,161.533,229.687,159.399,226.528z"/>
								</g>
								<g>
									<g>
										<rect x="106.491" y="230.247" style="fill:#04AA96;" width="179.417" height="93.828"/>
										<g>
											<g>
												<rect x="232.691" y="306.684" style="fill:#6EE0D2;" width="32.564" height="5.829"/>
												<rect x="247.389" y="299.267" style="fill:#6EE0D2;" width="17.866" height="2.475"/>
												<rect x="253.661" y="294.951" style="fill:#6EE0D2;" width="11.594" height="2.475"/>
												<path style="fill:#6EE0D2;" d="M260.13,282.356h-17.499c-2.819,0-5.125-2.306-5.125-5.125v-0.14
													c0-2.819,2.306-5.125,5.125-5.125h17.499c2.819,0,5.125,2.306,5.125,5.125v0.14
													C265.255,280.05,262.949,282.356,260.13,282.356z"/>
												<circle style="fill:#6EE0D2;" cx="256.861" cy="244.597" r="1.774"/>
												<circle style="fill:#6EE0D2;" cx="263.481" cy="244.597" r="1.774"/>
											</g>
											<g>
												
													<rect x="127.145" y="241.81" transform="matrix(-1 -8.979407e-11 8.979407e-11 -1 286.8527 489.4478)" style="fill:#6EE0D2;" width="32.564" height="5.829"/>
												
													<rect x="127.145" y="252.579" transform="matrix(-1 -8.969904e-11 8.969904e-11 -1 272.1547 507.6337)" style="fill:#6EE0D2;" width="17.866" height="2.475"/>
												
													<rect x="127.145" y="256.895" transform="matrix(-1 -8.990066e-11 8.990066e-11 -1 265.8827 516.2662)" style="fill:#6EE0D2;" width="11.594" height="2.475"/>
												<path style="fill:#6EE0D2;" d="M132.27,271.966h17.499c2.819,0,5.125,2.306,5.125,5.125v0.14
													c0,2.819-2.306,5.125-5.125,5.125H132.27c-2.819,0-5.125-2.306-5.125-5.125v-0.14
													C127.145,274.272,129.451,271.966,132.27,271.966z"/>
												<circle style="fill:#6EE0D2;" cx="135.539" cy="309.725" r="1.774"/>
												<circle style="fill:#6EE0D2;" cx="128.918" cy="309.725" r="1.774"/>
											</g>
										</g>
										<path style="fill:none;stroke:#6EE0D2;stroke-width:2;stroke-miterlimit:10;" d="M279.826,309.039v-63.756
											c-4.945,0-8.954-4.009-8.954-8.954H119.331c0,4.186-2.877,7.691-6.758,8.671v64.321c3.881,0.981,6.758,4.485,6.758,8.671
											h151.542C270.872,313.048,274.881,309.039,279.826,309.039z"/>
									</g>
									<circle style="fill:#6EE0D2;" cx="196.2" cy="277.161" r="20.611"/>
									<circle style="fill:none;stroke:#6EE0D2;stroke-miterlimit:10;" cx="196.2" cy="277.161" r="24.835"/>
									
										<text transform="matrix(1 0 0 1 187.2672 287.7815)" style="fill:#04BFAD; font-family:'Poppins-Bold'; font-size:29.0767px;">$</text>
								</g>
								<g>
									<g>
										<rect x="142.983" y="256.602" style="fill:#04BFAD;" width="179.417" height="93.828"/>
										<g>
											<g>
												<rect x="269.183" y="333.039" style="fill:#6EE0D2;" width="32.564" height="5.829"/>
												<rect x="283.881" y="325.622" style="fill:#6EE0D2;" width="17.866" height="2.475"/>
												<rect x="290.153" y="321.306" style="fill:#6EE0D2;" width="11.594" height="2.475"/>
												<path style="fill:#6EE0D2;" d="M296.622,308.711h-17.499c-2.819,0-5.125-2.306-5.125-5.125v-0.14
													c0-2.819,2.306-5.125,5.125-5.125h17.499c2.819,0,5.125,2.306,5.125,5.125v0.14
													C301.747,306.405,299.44,308.711,296.622,308.711z"/>
												<circle style="fill:#6EE0D2;" cx="293.352" cy="270.952" r="1.774"/>
												<circle style="fill:#6EE0D2;" cx="299.973" cy="270.952" r="1.774"/>
											</g>
											<g>
												
													<rect x="163.636" y="268.165" transform="matrix(-1 -8.976610e-11 8.976610e-11 -1 359.8359 542.1578)" style="fill:#6EE0D2;" width="32.564" height="5.829"/>
												
													<rect x="163.636" y="278.934" transform="matrix(-1 -8.980074e-11 8.980074e-11 -1 345.1379 560.3438)" style="fill:#6EE0D2;" width="17.866" height="2.475"/>
												
													<rect x="163.636" y="283.25" transform="matrix(-1 -8.974389e-11 8.974389e-11 -1 338.8659 568.9763)" style="fill:#6EE0D2;" width="11.594" height="2.475"/>
												<path style="fill:#6EE0D2;" d="M168.761,298.321h17.499c2.819,0,5.125,2.306,5.125,5.125v0.14
													c0,2.819-2.306,5.125-5.125,5.125h-17.499c-2.819,0-5.125-2.306-5.125-5.125v-0.14
													C163.636,300.627,165.942,298.321,168.761,298.321z"/>
												<circle style="fill:#6EE0D2;" cx="172.03" cy="336.08" r="1.774"/>
												<circle style="fill:#6EE0D2;" cx="165.41" cy="336.08" r="1.774"/>
											</g>
										</g>
										<path style="fill:none;stroke:#6EE0D2;stroke-width:2;stroke-miterlimit:10;" d="M316.318,335.394v-63.756
											c-4.945,0-8.954-4.009-8.954-8.954H155.823c0,4.186-2.877,7.691-6.758,8.671v64.321c3.881,0.981,6.758,4.485,6.758,8.671
											h151.542C307.364,339.403,311.373,335.394,316.318,335.394z"/>
									</g>
									<circle style="fill:#6EE0D2;" cx="232.691" cy="303.516" r="20.611"/>
									<circle style="fill:none;stroke:#6EE0D2;stroke-miterlimit:10;" cx="232.691" cy="303.516" r="24.835"/>
									
										<text transform="matrix(1 0 0 1 223.7589 314.137)" style="fill:#04BFAD; font-family:'Poppins-Bold'; font-size:29.0767px;">$</text>
								</g>
								<g>
									<path style="fill:#FF945F;" d="M206.979,251.087H58.31c-1.353,0-2.45-1.097-2.45-2.45h-7.265
										c0,4.012,3.252,7.264,7.265,7.264h151.119v111.671h4.472V255.558C211.451,253.089,209.449,251.087,206.979,251.087z"/>
									<g>
										<g>
											<path style="fill:#CE6429;" d="M206.979,255.901H55.86c-4.012,0-7.265-3.252-7.265-7.264v112.012
												c0,3.824,3.1,6.923,6.923,6.923h146.723c1.835,0,3.499-0.719,4.738-1.884V255.901z"/>
											<path style="fill:#D77637;" d="M55.86,255.901c-4.012,0-7.265-3.252-7.265-7.264v112.012c0,3.824,3.1,6.923,6.923,6.923
												h72.015V255.901H55.86z"/>
											<g>
												<path style="fill:#F7BF00;" d="M112.517,349.523H48.595v-12.411h63.921c3.381,0,6.122,2.741,6.122,6.122v0.167
													C118.639,346.782,115.898,349.523,112.517,349.523z"/>
												<path style="fill:#F79C00;" d="M48.595,349.523h63.838c3.427,0,6.206-2.778,6.206-6.206H48.595V349.523z"/>
												
													<text transform="matrix(1 0 0 1 67.835 346.1429)" style="fill:#FFFFFF; font-family:'Poppins-Bold'; font-size:8.3319px;">PAYMENT</text>
											</g>
											<g>
												<path style="fill:none;stroke:#FFBA00;stroke-width:2;stroke-miterlimit:10;stroke-dasharray:3.0004,3.0004;" d="
													M194.058,363.005H61.009c-3.824,0-6.923-3.1-6.923-6.923v-88.267c0-3.824,3.1-6.923,6.923-6.923h133.049
													c3.824,0,6.923,3.1,6.923,6.923v88.267C200.982,359.905,197.882,363.005,194.058,363.005z"/>
											</g>
										</g>
									</g>
								</g>
							</g>
						</g>
						<rect x="298.695" y="247.595" style="fill:#2C3E60;" width="9.971" height="113.756"/>
						<g>
							<g>
								<rect x="336.394" y="327.115" style="fill:#04BFAD;" width="65.177" height="13.422"/>
								<rect x="336.394" y="333.826" style="fill:#02AA95;" width="65.177" height="6.711"/>
								
									<text transform="matrix(1 0 0 1 345.2701 337.1116)" style="fill:#FFFFFF; font-family:'Poppins-Bold'; font-size:8.3319px;">CASHBACK</text>
							</g>
							<g>
								<path style="fill:#233154;" d="M336.394,317.017h2.607v-2.607h-2.607V317.017 M339.001,317.017h2.607v-2.607h-2.607V317.017
									 M341.609,317.017h2.607v-2.607h-2.607V317.017 M344.216,317.017h2.607v-2.607h-2.607V317.017 M346.823,317.017h2.607
									v-2.607h-2.607V317.017 M349.43,317.017h2.607v-2.607h-2.607V317.017 M352.037,317.017h2.607v-2.607h-2.607V317.017
									 M357.251,317.017h2.607v-2.607h-2.607V317.017 M362.465,317.017h2.607v-2.607h-2.607V317.017 M365.072,317.017h2.607
									v-2.607h-2.607V317.017 M367.679,317.017h2.607v-2.607h-2.607V317.017 M370.286,317.017h2.607v-2.607h-2.607V317.017
									 M385.929,317.017h2.607v-2.607h-2.607V317.017 M388.536,317.017h2.607v-2.607h-2.607V317.017 M391.143,317.017h2.607
									v-2.607h-2.607V317.017 M393.75,317.017h2.607v-2.607h-2.607V317.017 M396.357,317.017h2.607v-2.607h-2.607V317.017
									 M398.964,317.017h2.607v-2.607h-2.607V317.017 M336.394,314.41h2.607v-2.607h-2.607V314.41 M352.037,314.41h2.607v-2.607
									h-2.607V314.41 M357.251,314.41h2.607v-2.607h-2.607V314.41 M365.072,314.41h2.607v-2.607h-2.607V314.41 M372.894,314.41
									h2.607v-2.607h-2.607V314.41 M375.501,314.41h2.607v-2.607h-2.607V314.41 M378.108,314.41h2.607v-2.607h-2.607V314.41
									 M380.715,314.41h2.607v-2.607h-2.607V314.41 M385.929,314.41h2.607v-2.607h-2.607V314.41 M388.536,314.41h2.607v-2.607
									h-2.607V314.41 M391.143,314.41h2.607v-2.607h-2.607V314.41 M398.964,314.41h2.607v-2.607h-2.607V314.41 M336.394,311.803
									h2.607v-2.607h-2.607V311.803 M341.609,311.803h2.607v-2.607h-2.607V311.803 M344.216,311.803h2.607v-2.607h-2.607V311.803
									 M346.823,311.803h2.607v-2.607h-2.607V311.803 M352.037,311.803h2.607v-2.607h-2.607V311.803 M357.251,311.803h2.607
									v-2.607h-2.607V311.803 M372.894,311.803h2.607v-2.607h-2.607V311.803 M391.143,311.803h2.607v-2.607h-2.607V311.803
									 M393.75,311.803h2.607v-2.607h-2.607V311.803 M398.964,311.803h2.607v-2.607h-2.607V311.803 M336.394,309.196h2.607v-2.607
									h-2.607V309.196 M341.609,309.196h2.607v-2.607h-2.607V309.196 M344.216,309.196h2.607v-2.607h-2.607V309.196
									 M346.823,309.196h2.607v-2.607h-2.607V309.196 M352.037,309.196h2.607v-2.607h-2.607V309.196 M357.251,309.196h2.607
									v-2.607h-2.607V309.196 M359.858,309.196h2.607v-2.607h-2.607V309.196 M367.679,309.196h2.607v-2.607h-2.607V309.196
									 M370.286,309.196h2.607v-2.607h-2.607V309.196 M375.501,309.196h2.607v-2.607h-2.607V309.196 M378.108,309.196h2.607
									v-2.607h-2.607V309.196 M383.322,309.196h2.607v-2.607h-2.607V309.196 M388.536,309.196h2.607v-2.607h-2.607V309.196
									 M391.143,309.196h2.607v-2.607h-2.607V309.196 M393.75,309.196h2.607v-2.607h-2.607V309.196 M396.357,309.196h2.607v-2.607
									h-2.607V309.196 M398.964,309.196h2.607v-2.607h-2.607V309.196 M336.394,306.589h2.607v-2.607h-2.607V306.589
									 M341.609,306.589h2.607v-2.607h-2.607V306.589 M344.216,306.589h2.607v-2.607h-2.607V306.589 M346.823,306.589h2.607
									v-2.607h-2.607V306.589 M352.037,306.589h2.607v-2.607h-2.607V306.589 M357.251,306.589h2.607v-2.607h-2.607V306.589
									 M365.072,306.589h2.607v-2.607h-2.607V306.589 M367.679,306.589h2.607v-2.607h-2.607V306.589 M370.286,306.589h2.607
									v-2.607h-2.607V306.589 M372.894,306.589h2.607v-2.607h-2.607V306.589 M375.501,306.589h2.607v-2.607h-2.607V306.589
									 M378.108,306.589h2.607v-2.607h-2.607V306.589 M380.715,306.589h2.607v-2.607h-2.607V306.589 M383.322,306.589h2.607
									v-2.607h-2.607V306.589 M385.929,306.589h2.607v-2.607h-2.607V306.589 M388.536,306.589h2.607v-2.607h-2.607V306.589
									 M393.75,306.589h2.607v-2.607h-2.607V306.589 M336.394,303.982h2.607v-2.607h-2.607V303.982 M352.037,303.982h2.607v-2.607
									h-2.607V303.982 M362.465,303.982h2.607v-2.607h-2.607V303.982 M365.072,303.982h2.607v-2.607h-2.607V303.982
									 M372.894,303.982h2.607v-2.607h-2.607V303.982 M378.108,303.982h2.607v-2.607h-2.607V303.982 M388.536,303.982h2.607
									v-2.607h-2.607V303.982 M391.143,303.982h2.607v-2.607h-2.607V303.982 M398.964,303.982h2.607v-2.607h-2.607V303.982
									 M336.394,301.375h2.607v-2.607h-2.607V301.375 M339.001,301.375h2.607v-2.607h-2.607V301.375 M341.609,301.375h2.607
									v-2.607h-2.607V301.375 M344.216,301.375h2.607v-2.607h-2.607V301.375 M346.823,301.375h2.607v-2.607h-2.607V301.375
									 M349.43,301.375h2.607v-2.607h-2.607V301.375 M352.037,301.375h2.607v-2.607h-2.607V301.375 M357.251,301.375h2.607v-2.607
									h-2.607V301.375 M359.858,301.375h2.607v-2.607h-2.607V301.375 M365.072,301.375h2.607v-2.607h-2.607V301.375
									 M367.679,301.375h2.607v-2.607h-2.607V301.375 M370.286,301.375h2.607v-2.607h-2.607V301.375 M372.894,301.375h2.607
									v-2.607h-2.607V301.375 M378.108,301.375h2.607v-2.607h-2.607V301.375 M383.322,301.375h2.607v-2.607h-2.607V301.375
									 M388.536,301.375h2.607v-2.607h-2.607V301.375 M393.75,301.375h2.607v-2.607h-2.607V301.375 M396.357,301.375h2.607v-2.607
									h-2.607V301.375 M398.964,301.375h2.607v-2.607h-2.607V301.375 M357.251,298.768h2.607v-2.607h-2.607V298.768
									 M362.465,298.768h2.607v-2.607h-2.607V298.768 M370.286,298.768h2.607v-2.607h-2.607V298.768 M378.108,298.768h2.607
									v-2.607h-2.607V298.768 M388.536,298.768h2.607v-2.607h-2.607V298.768 M391.143,298.768h2.607v-2.607h-2.607V298.768
									 M336.394,296.161h2.607v-2.607h-2.607V296.161 M341.609,296.161h2.607v-2.607h-2.607V296.161 M352.037,296.161h2.607
									v-2.607h-2.607V296.161 M354.644,296.161h2.607v-2.607h-2.607V296.161 M367.679,296.161h2.607v-2.607h-2.607V296.161
									 M370.286,296.161h2.607v-2.607h-2.607V296.161 M372.894,296.161h2.607v-2.607h-2.607V296.161 M375.501,296.161h2.607
									v-2.607h-2.607V296.161 M378.108,296.161h2.607v-2.607h-2.607V296.161 M380.715,296.161h2.607v-2.607h-2.607V296.161
									 M383.322,296.161h2.607v-2.607h-2.607V296.161 M385.929,296.161h2.607v-2.607h-2.607V296.161 M388.536,296.161h2.607
									v-2.607h-2.607V296.161 M393.75,296.161h2.607v-2.607h-2.607V296.161 M336.394,293.553h2.607v-2.607h-2.607V293.553
									 M346.823,293.553h2.607v-2.607h-2.607V293.553 M354.644,293.553h2.607v-2.607h-2.607V293.553 M359.858,293.553h2.607
									v-2.607h-2.607V293.553 M362.465,293.553h2.607v-2.607h-2.607V293.553 M367.679,293.553h2.607v-2.607h-2.607V293.553
									 M372.894,293.553h2.607v-2.607h-2.607V293.553 M380.715,293.553h2.607v-2.607h-2.607V293.553 M385.929,293.553h2.607
									v-2.607h-2.607V293.553 M388.536,293.553h2.607v-2.607h-2.607V293.553 M398.964,293.553h2.607v-2.607h-2.607V293.553
									 M336.394,290.946h2.607v-2.607h-2.607V290.946 M349.43,290.946h2.607v-2.607h-2.607V290.946 M352.037,290.946h2.607v-2.607
									h-2.607V290.946 M357.251,290.946h2.607v-2.607h-2.607V290.946 M362.465,290.946h2.607v-2.607h-2.607V290.946
									 M370.286,290.946h2.607v-2.607h-2.607V290.946 M375.501,290.946h2.607v-2.607h-2.607V290.946 M380.715,290.946h2.607
									v-2.607h-2.607V290.946 M383.322,290.946h2.607v-2.607h-2.607V290.946 M385.929,290.946h2.607v-2.607h-2.607V290.946
									 M388.536,290.946h2.607v-2.607h-2.607V290.946 M391.143,290.946h2.607v-2.607h-2.607V290.946 M396.357,290.946h2.607
									v-2.607h-2.607V290.946 M398.964,290.946h2.607v-2.607h-2.607V290.946 M336.394,288.339h2.607v-2.607h-2.607V288.339
									 M339.001,288.339h2.607v-2.607h-2.607V288.339 M341.609,288.339h2.607v-2.607h-2.607V288.339 M346.823,288.339h2.607
									v-2.607h-2.607V288.339 M354.644,288.339h2.607v-2.607h-2.607V288.339 M362.465,288.339h2.607v-2.607h-2.607V288.339
									 M367.679,288.339h2.607v-2.607h-2.607V288.339 M378.108,288.339h2.607v-2.607h-2.607V288.339 M380.715,288.339h2.607
									v-2.607h-2.607V288.339 M385.929,288.339h2.607v-2.607h-2.607V288.339 M391.143,288.339h2.607v-2.607h-2.607V288.339
									 M396.357,288.339h2.607v-2.607h-2.607V288.339 M336.394,285.732h2.607v-2.607h-2.607V285.732 M344.216,285.732h2.607
									v-2.607h-2.607V285.732 M349.43,285.732h2.607v-2.607h-2.607V285.732 M352.037,285.732h2.607v-2.607h-2.607V285.732
									 M359.858,285.732h2.607v-2.607h-2.607V285.732 M365.072,285.732h2.607v-2.607h-2.607V285.732 M370.286,285.732h2.607
									v-2.607h-2.607V285.732 M372.894,285.732h2.607v-2.607h-2.607V285.732 M375.501,285.732h2.607v-2.607h-2.607V285.732
									 M380.715,285.732h2.607v-2.607h-2.607V285.732 M383.322,285.732h2.607v-2.607h-2.607V285.732 M385.929,285.732h2.607
									v-2.607h-2.607V285.732 M388.536,285.732h2.607v-2.607h-2.607V285.732 M393.75,285.732h2.607v-2.607h-2.607V285.732
									 M396.357,285.732h2.607v-2.607h-2.607V285.732 M398.964,285.732h2.607v-2.607h-2.607V285.732 M336.394,283.125h2.607
									v-2.607h-2.607V283.125 M344.216,283.125h2.607v-2.607h-2.607V283.125 M346.823,283.125h2.607v-2.607h-2.607V283.125
									 M354.644,283.125h2.607v-2.607h-2.607V283.125 M359.858,283.125h2.607v-2.607h-2.607V283.125 M362.465,283.125h2.607
									v-2.607h-2.607V283.125 M365.072,283.125h2.607v-2.607h-2.607V283.125 M375.501,283.125h2.607v-2.607h-2.607V283.125
									 M378.108,283.125h2.607v-2.607h-2.607V283.125 M380.715,283.125h2.607v-2.607h-2.607V283.125 M385.929,283.125h2.607
									v-2.607h-2.607V283.125 M398.964,283.125h2.607v-2.607h-2.607V283.125 M336.394,280.518h2.607v-2.607h-2.607V280.518
									 M346.823,280.518h2.607v-2.607h-2.607V280.518 M349.43,280.518h2.607v-2.607h-2.607V280.518 M352.037,280.518h2.607v-2.607
									h-2.607V280.518 M357.251,280.518h2.607v-2.607h-2.607V280.518 M359.858,280.518h2.607v-2.607h-2.607V280.518
									 M365.072,280.518h2.607v-2.607h-2.607V280.518 M367.679,280.518h2.607v-2.607h-2.607V280.518 M370.286,280.518h2.607
									v-2.607h-2.607V280.518 M372.894,280.518h2.607v-2.607h-2.607V280.518 M375.501,280.518h2.607v-2.607h-2.607V280.518
									 M378.108,280.518h2.607v-2.607h-2.607V280.518 M380.715,280.518h2.607v-2.607h-2.607V280.518 M383.322,280.518h2.607
									v-2.607h-2.607V280.518 M385.929,280.518h2.607v-2.607h-2.607V280.518 M388.536,280.518h2.607v-2.607h-2.607V280.518
									 M391.143,280.518h2.607v-2.607h-2.607V280.518 M396.357,280.518h2.607v-2.607h-2.607V280.518 M398.964,280.518h2.607
									v-2.607h-2.607V280.518 M344.216,277.911h2.607v-2.607h-2.607V277.911 M354.644,277.911h2.607v-2.607h-2.607V277.911
									 M357.251,277.911h2.607v-2.607h-2.607V277.911 M359.858,277.911h2.607v-2.607h-2.607V277.911 M370.286,277.911h2.607
									v-2.607h-2.607V277.911 M378.108,277.911h2.607v-2.607h-2.607V277.911 M380.715,277.911h2.607v-2.607h-2.607V277.911
									 M385.929,277.911h2.607v-2.607h-2.607V277.911 M396.357,277.911h2.607v-2.607h-2.607V277.911 M336.394,275.304h2.607
									v-2.607h-2.607V275.304 M339.001,275.304h2.607v-2.607h-2.607V275.304 M341.609,275.304h2.607v-2.607h-2.607V275.304
									 M344.216,275.304h2.607v-2.607h-2.607V275.304 M346.823,275.304h2.607v-2.607h-2.607V275.304 M352.037,275.304h2.607
									v-2.607h-2.607V275.304 M354.644,275.304h2.607v-2.607h-2.607V275.304 M357.251,275.304h2.607v-2.607h-2.607V275.304
									 M359.858,275.304h2.607v-2.607h-2.607V275.304 M362.465,275.304h2.607v-2.607h-2.607V275.304 M367.679,275.304h2.607
									v-2.607h-2.607V275.304 M370.286,275.304h2.607v-2.607h-2.607V275.304 M375.501,275.304h2.607v-2.607h-2.607V275.304
									 M380.715,275.304h2.607v-2.607h-2.607V275.304 M385.929,275.304h2.607v-2.607h-2.607V275.304 M391.143,275.304h2.607
									v-2.607h-2.607V275.304 M396.357,275.304h2.607v-2.607h-2.607V275.304 M367.679,272.697h2.607v-2.607h-2.607V272.697
									 M372.894,272.697h2.607v-2.607h-2.607V272.697 M375.501,272.697h2.607v-2.607h-2.607V272.697 M378.108,272.697h2.607
									v-2.607h-2.607V272.697 M336.394,270.09h2.607v-2.607h-2.607V270.09 M339.001,270.09h2.607v-2.607h-2.607V270.09
									 M341.609,270.09h2.607v-2.607h-2.607V270.09 M344.216,270.09h2.607v-2.607h-2.607V270.09 M346.823,270.09h2.607v-2.607
									h-2.607V270.09 M349.43,270.09h2.607v-2.607h-2.607V270.09 M352.037,270.09h2.607v-2.607h-2.607V270.09 M357.251,270.09
									h2.607v-2.607h-2.607V270.09 M362.465,270.09h2.607v-2.607h-2.607V270.09 M367.679,270.09h2.607v-2.607h-2.607V270.09
									 M372.894,270.09h2.607v-2.607h-2.607V270.09 M378.108,270.09h2.607v-2.607h-2.607V270.09 M383.322,270.09h2.607v-2.607
									h-2.607V270.09 M385.929,270.09h2.607v-2.607h-2.607V270.09 M388.536,270.09h2.607v-2.607h-2.607V270.09 M391.143,270.09
									h2.607v-2.607h-2.607V270.09 M393.75,270.09h2.607v-2.607h-2.607V270.09 M396.357,270.09h2.607v-2.607h-2.607V270.09
									 M398.964,270.09h2.607v-2.607h-2.607V270.09 M336.394,267.483h2.607v-2.607h-2.607V267.483 M352.037,267.483h2.607v-2.607
									h-2.607V267.483 M357.251,267.483h2.607v-2.607h-2.607V267.483 M362.465,267.483h2.607v-2.607h-2.607V267.483
									 M370.286,267.483h2.607v-2.607h-2.607V267.483 M375.501,267.483h2.607v-2.607h-2.607V267.483 M378.108,267.483h2.607
									v-2.607h-2.607V267.483 M383.322,267.483h2.607v-2.607h-2.607V267.483 M398.964,267.483h2.607v-2.607h-2.607V267.483
									 M336.394,264.875h2.607v-2.607h-2.607V264.875 M341.609,264.875h2.607v-2.607h-2.607V264.875 M344.216,264.875h2.607
									v-2.607h-2.607V264.875 M346.823,264.875h2.607v-2.607h-2.607V264.875 M352.037,264.875h2.607v-2.607h-2.607V264.875
									 M362.465,264.875h2.607v-2.607h-2.607V264.875 M367.679,264.875h2.607v-2.607h-2.607V264.875 M370.286,264.875h2.607
									v-2.607h-2.607V264.875 M378.108,264.875h2.607v-2.607h-2.607V264.875 M383.322,264.875h2.607v-2.607h-2.607V264.875
									 M388.536,264.875h2.607v-2.607h-2.607V264.875 M391.143,264.875h2.607v-2.607h-2.607V264.875 M393.75,264.875h2.607v-2.607
									h-2.607V264.875 M398.964,264.875h2.607v-2.607h-2.607V264.875 M336.394,262.268h2.607v-2.607h-2.607V262.268
									 M341.609,262.268h2.607v-2.607h-2.607V262.268 M344.216,262.268h2.607v-2.607h-2.607V262.268 M346.823,262.268h2.607
									v-2.607h-2.607V262.268 M352.037,262.268h2.607v-2.607h-2.607V262.268 M357.251,262.268h2.607v-2.607h-2.607V262.268
									 M359.858,262.268h2.607v-2.607h-2.607V262.268 M365.072,262.268h2.607v-2.607h-2.607V262.268 M370.286,262.268h2.607
									v-2.607h-2.607V262.268 M372.894,262.268h2.607v-2.607h-2.607V262.268 M375.501,262.268h2.607v-2.607h-2.607V262.268
									 M378.108,262.268h2.607v-2.607h-2.607V262.268 M383.322,262.268h2.607v-2.607h-2.607V262.268 M388.536,262.268h2.607
									v-2.607h-2.607V262.268 M391.143,262.268h2.607v-2.607h-2.607V262.268 M393.75,262.268h2.607v-2.607h-2.607V262.268
									 M398.964,262.268h2.607v-2.607h-2.607V262.268 M336.394,259.661h2.607v-2.607h-2.607V259.661 M341.609,259.661h2.607
									v-2.607h-2.607V259.661 M344.216,259.661h2.607v-2.607h-2.607V259.661 M346.823,259.661h2.607v-2.607h-2.607V259.661
									 M352.037,259.661h2.607v-2.607h-2.607V259.661 M359.858,259.661h2.607v-2.607h-2.607V259.661 M362.465,259.661h2.607
									v-2.607h-2.607V259.661 M365.072,259.661h2.607v-2.607h-2.607V259.661 M372.894,259.661h2.607v-2.607h-2.607V259.661
									 M375.501,259.661h2.607v-2.607h-2.607V259.661 M383.322,259.661h2.607v-2.607h-2.607V259.661 M388.536,259.661h2.607
									v-2.607h-2.607V259.661 M391.143,259.661h2.607v-2.607h-2.607V259.661 M393.75,259.661h2.607v-2.607h-2.607V259.661
									 M398.964,259.661h2.607v-2.607h-2.607V259.661 M336.394,257.054h2.607v-2.607h-2.607V257.054 M352.037,257.054h2.607
									v-2.607h-2.607V257.054 M357.251,257.054h2.607v-2.607h-2.607V257.054 M359.858,257.054h2.607v-2.607h-2.607V257.054
									 M365.072,257.054h2.607v-2.607h-2.607V257.054 M367.679,257.054h2.607v-2.607h-2.607V257.054 M375.501,257.054h2.607
									v-2.607h-2.607V257.054 M383.322,257.054h2.607v-2.607h-2.607V257.054 M398.964,257.054h2.607v-2.607h-2.607V257.054
									 M336.394,254.447h2.607v-2.607h-2.607V254.447 M339.001,254.447h2.607v-2.607h-2.607V254.447 M341.609,254.447h2.607
									v-2.607h-2.607V254.447 M344.216,254.447h2.607v-2.607h-2.607V254.447 M346.823,254.447h2.607v-2.607h-2.607V254.447
									 M349.43,254.447h2.607v-2.607h-2.607V254.447 M352.037,254.447h2.607v-2.607h-2.607V254.447 M359.858,254.447h2.607v-2.607
									h-2.607V254.447 M370.286,254.447h2.607v-2.607h-2.607V254.447 M378.108,254.447h2.607v-2.607h-2.607V254.447
									 M383.322,254.447h2.607v-2.607h-2.607V254.447 M385.929,254.447h2.607v-2.607h-2.607V254.447 M388.536,254.447h2.607
									v-2.607h-2.607V254.447 M391.143,254.447h2.607v-2.607h-2.607V254.447 M393.75,254.447h2.607v-2.607h-2.607V254.447
									 M396.357,254.447h2.607v-2.607h-2.607V254.447 M398.964,254.447h2.607v-2.607h-2.607V254.447L398.964,254.447z"/>
							</g>
						</g>
						<g>
							<circle style="fill:#F7BF00;" cx="433.183" cy="219.732" r="25.088"/>
							<circle style="fill:none;stroke:#04BFAD;stroke-miterlimit:10;" cx="433.183" cy="219.732" r="30.228"/>
							<path style="fill:#F7AB00;" d="M458.271,219.732c0-13.856-11.232-25.088-25.088-25.088v50.176
								C447.039,244.82,458.271,233.588,458.271,219.732z"/>
							<g>
								<g>
									<g>
										<g>
											<g>
												<path style="fill:#FFFFFF;" d="M445.404,233.656h-24.441c-0.663,0-1.226-0.452-1.37-1.1l-3.596-16.213
													c-0.093-0.418,0.008-0.849,0.275-1.182c0.268-0.334,0.667-0.525,1.094-0.525H449c0.428,0,0.827,0.191,1.094,0.525
													c0.268,0.334,0.368,0.765,0.276,1.182l-3.596,16.213C446.63,233.204,446.067,233.656,445.404,233.656z M421.008,232.197
													h24.351l3.571-16.101h-31.493L421.008,232.197z"/>
											</g>
											<path style="fill:#FFFFFF;" d="M432.53,204.836c-0.015-0.223-0.117-0.426-0.287-0.571
												c-0.34-0.292-0.858-0.256-1.155,0.079l-9.328,10.338c-0.308,0.347-0.285,0.891,0.049,1.188
												c0.151,0.135,0.346,0.209,0.549,0.209c0.236,0,0.462-0.101,0.618-0.278l9.348-10.36
												C432.472,205.273,432.545,205.058,432.53,204.836z"/>
											<g>
												<rect x="419.402" y="228.043" style="fill:#FFFFFF;" width="27.562" height="1.459"/>
											</g>
											<g>
												<rect x="418.757" y="223.571" style="fill:#FFFFFF;" width="28.853" height="1.459"/>
											</g>
											<g>
												<rect x="417.634" y="219.099" style="fill:#FFFFFF;" width="31.098" height="1.459"/>
											</g>
											<g>
												<g>
													<g>
														
															<rect x="422.873" y="215.258" transform="matrix(0.9878 -0.1559 0.1559 0.9878 -29.7708 68.7975)" style="fill:#FFFFFF;" width="1.46" height="17.778"/>
													</g>
													<g>
														
															<rect x="428.829" y="215.328" transform="matrix(0.9956 -0.0935 0.0935 0.9956 -19.0797 41.1549)" style="fill:#FFFFFF;" width="1.46" height="17.637"/>
													</g>
												</g>
												<g>
													<g>
														
															<rect x="433.875" y="223.417" transform="matrix(0.1559 -0.9878 0.9878 0.1559 152.3209 626.5449)" style="fill:#FFFFFF;" width="17.778" height="1.46"/>
													</g>
													<g>
														
															<rect x="427.989" y="223.417" transform="matrix(0.0934 -0.9956 0.9956 0.0934 172.8328 638.1032)" style="fill:#FFFFFF;" width="17.637" height="1.46"/>
													</g>
												</g>
											</g>
										</g>
									</g>
									<g>
										<path style="fill:#FFFFFF;" d="M423.917,215.253c0,0.876-0.71,1.586-1.586,1.586c-0.876,0-1.586-0.71-1.586-1.586
											c0-0.876,0.71-1.586,1.586-1.586C423.207,213.667,423.917,214.377,423.917,215.253z"/>
									</g>
									<path style="fill:#FFFFFF;" d="M433.837,204.836c0.015-0.223,0.117-0.426,0.287-0.571c0.34-0.292,0.858-0.256,1.155,0.079
										l9.328,10.338c0.308,0.347,0.285,0.891-0.049,1.188c-0.151,0.135-0.346,0.209-0.549,0.209
										c-0.236,0-0.462-0.101-0.618-0.278l-9.348-10.36C433.895,205.273,433.822,205.058,433.837,204.836z"/>
									<g>
										<path style="fill:#FFFFFF;" d="M442.45,215.253c0,0.876,0.71,1.586,1.586,1.586c0.876,0,1.586-0.71,1.586-1.586
											c0-0.876-0.71-1.586-1.586-1.586C443.16,213.667,442.45,214.377,442.45,215.253z"/>
									</g>
								</g>
							</g>
						</g>
						<g>
							<circle style="fill:#F7CE00;" cx="301.449" cy="143.41" r="25.088"/>
							<path style="fill:#F7BF00;" d="M326.537,143.409c0-13.856-11.232-25.088-25.088-25.088v50.176
								C315.305,168.497,326.537,157.265,326.537,143.409z"/>
							<circle style="fill:#F7BF00;" cx="301.449" cy="143.41" r="19.797"/>
							<path style="fill:#F7AE00;" d="M321.246,143.409c0-10.933-8.863-19.797-19.797-19.797v39.593
								C312.383,163.206,321.246,154.343,321.246,143.409z"/>
							
								<text transform="matrix(1 0 0 1 292.2403 153.7845)" style="fill:#FFE164; font-family:'Poppins-Bold'; font-size:29.0767px;">$</text>
							<path style="fill:#F7AE00;" d="M301.449,123.613c-10.933,0-19.797,8.863-19.797,19.797c0,10.933,8.863,19.797,19.797,19.797
								c10.933,0,19.797-8.863,19.797-19.797C321.246,132.476,312.383,123.613,301.449,123.613z M301.449,161.686
								c-10.094,0-18.276-8.183-18.276-18.276c0-10.094,8.182-18.276,18.276-18.276c10.094,0,18.276,8.182,18.276,18.276
								C319.725,153.503,311.543,161.686,301.449,161.686z"/>
							<path style="fill:#F79C00;" d="M317.865,132.341c-1.423-2.106-3.241-3.924-5.347-5.347c-3.16-2.135-6.968-3.381-11.068-3.381
								v1.52c10.094,0,18.276,8.182,18.276,18.276c0,10.094-8.182,18.276-18.276,18.276v1.52c7.092,0,13.294-3.741,16.79-9.345
								c1.894-3.036,3.006-6.61,3.006-10.452C321.246,139.309,319.999,135.501,317.865,132.341z"/>
						</g>
						<g>
							<circle style="fill:#F7CE00;" cx="152.622" cy="143.41" r="25.088"/>
							<path style="fill:#F7BF00;" d="M177.71,143.409c0-13.856-11.232-25.088-25.088-25.088v50.176
								C166.477,168.497,177.71,157.265,177.71,143.409z"/>
							<circle style="fill:#F7BF00;" cx="152.622" cy="143.41" r="19.797"/>
							<path style="fill:#F7AE00;" d="M172.418,143.409c0-10.933-8.863-19.797-19.797-19.797v39.593
								C163.555,163.206,172.418,154.343,172.418,143.409z"/>
							
								<text transform="matrix(1 0 0 1 143.4127 153.7845)" style="fill:#FFE164; font-family:'Poppins-Bold'; font-size:29.0767px;">$</text>
							<path style="fill:#F7AE00;" d="M152.622,123.613c-10.933,0-19.797,8.863-19.797,19.797c0,10.933,8.863,19.797,19.797,19.797
								c10.933,0,19.797-8.863,19.797-19.797C172.418,132.476,163.555,123.613,152.622,123.613z M152.622,161.686
								c-10.094,0-18.276-8.183-18.276-18.276c0-10.094,8.182-18.276,18.276-18.276c10.094,0,18.276,8.182,18.276,18.276
								C170.898,153.503,162.715,161.686,152.622,161.686z"/>
							<path style="fill:#F79C00;" d="M169.037,132.341c-1.423-2.106-3.241-3.924-5.347-5.347c-3.16-2.135-6.968-3.381-11.068-3.381
								v1.52c10.094,0,18.276,8.182,18.276,18.276c0,10.094-8.182,18.276-18.276,18.276v1.52c7.092,0,13.294-3.741,16.79-9.345
								c1.894-3.036,3.006-6.61,3.006-10.452C172.418,139.309,171.172,135.501,169.037,132.341z"/>
						</g>
						<g>
							<circle style="fill:#F7CE00;" cx="225.038" cy="112.649" r="25.088"/>
							<path style="fill:#F7BF00;" d="M250.126,112.649c0-13.856-11.232-25.088-25.088-25.088v50.176
								C238.893,137.737,250.126,126.505,250.126,112.649z"/>
							<circle style="fill:#F7BF00;" cx="225.038" cy="112.649" r="19.797"/>
							<path style="fill:#F7AE00;" d="M244.834,112.649c0-10.933-8.863-19.797-19.797-19.797v39.593
								C235.971,132.445,244.834,123.582,244.834,112.649z"/>
							
								<text transform="matrix(1 0 0 1 215.8287 123.0237)" style="fill:#FFE164; font-family:'Poppins-Bold'; font-size:29.0767px;">$</text>
							<path style="fill:#F7AE00;" d="M225.038,92.852c-10.933,0-19.797,8.863-19.797,19.797c0,10.933,8.863,19.797,19.797,19.797
								c10.933,0,19.797-8.863,19.797-19.797C244.834,101.715,235.971,92.852,225.038,92.852z M225.038,130.925
								c-10.094,0-18.276-8.182-18.276-18.276c0-10.094,8.182-18.276,18.276-18.276c10.094,0,18.276,8.182,18.276,18.276
								C243.314,122.742,235.131,130.925,225.038,130.925z"/>
							<path style="fill:#F79C00;" d="M241.453,101.58c-1.423-2.106-3.241-3.924-5.347-5.347c-3.16-2.135-6.968-3.381-11.068-3.381
								v1.52c10.094,0,18.276,8.182,18.276,18.276c0,10.094-8.182,18.276-18.276,18.276v1.52c7.092,0,13.294-3.741,16.79-9.345
								c1.894-3.036,3.006-6.61,3.006-10.452C244.834,108.549,243.588,104.74,241.453,101.58z"/>
						</g>
						<polygon style="fill:#04BFAD;" points="116.996,217.334 103.459,193.887 130.533,193.887 						"/>
						<g>
							<rect x="110.347" y="391.49" style="fill:#F7BF00;" width="162.83" height="6.082"/>
						</g>
						<g>
							<rect x="110.347" y="394.531" style="fill:#F79C00;" width="162.83" height="3.041"/>
						</g>
						<polygon style="fill:#F7BF00;" points="282.053,394.531 258.606,408.068 258.606,380.994 						"/>
						<polygon style="fill:#F79C00;" points="258.606,408.068 282.053,394.531 258.606,394.531 						"/>
						<polygon style="fill:#02AA95;" points="116.996,193.887 116.996,217.334 130.533,193.887 						"/>
					</g>
					<polyline style="fill:none;stroke:#04BFAD;stroke-miterlimit:10;" points="332.439,163.206 445.621,163.206 445.621,192.392 
											"/>
					<polyline style="fill:none;stroke:#04BFAD;stroke-miterlimit:10;" points="406.9,333.826 445.621,333.826 445.621,247.595 
											"/>
					<g>
						<polygon style="fill:#04BFAD;" points="413.258,333.826 406.9,330.155 406.9,337.497 						"/>
						<polygon style="fill:#02AA95;" points="406.9,333.826 413.258,333.826 406.9,337.497 						"/>
					</g>
					<g>
						<polygon style="fill:#04BFAD;" points="330.342,163.206 336.7,159.535 336.7,166.877 						"/>
						<polygon style="fill:#02AA95;" points="336.7,163.206 330.342,163.206 336.7,166.877 						"/>
					</g>
				</g>
			</g>
		</g>
		<g>
			<g>
				<polygon style="fill:#F7CE00;" points="105.353,126.37 108.229,134.143 116.002,137.019 108.229,139.895 105.353,147.668 
					102.477,139.895 94.704,137.019 102.477,134.143 				"/>
				<polygon style="fill:#F7B500;" points="108.229,139.895 116.002,137.019 108.229,134.143 105.353,126.37 105.353,147.668 				
					"/>
			</g>
			<g>
				<polygon style="fill:#F7CE00;" points="120.77,105.223 122.911,111.009 128.697,113.15 122.911,115.292 120.77,121.078 
					118.628,115.292 112.842,113.15 118.628,111.009 				"/>
				<polygon style="fill:#F7B500;" points="122.911,115.292 128.697,113.15 122.911,111.009 120.77,105.223 120.77,121.078 				"/>
			</g>
			<g>
				<polygon style="fill:#F7CE00;" points="94.704,110.132 96.423,114.779 101.07,116.499 96.423,118.218 94.704,122.865 
					92.984,118.218 88.337,116.499 92.984,114.779 				"/>
				<polygon style="fill:#F7B500;" points="96.423,118.218 101.07,116.499 96.423,114.779 94.704,110.132 94.704,122.865 				"/>
			</g>
		</g>
		<g>
			<g>
				<polygon style="fill:#F7CE00;" points="272.071,93.374 269.195,101.147 261.422,104.023 269.195,106.9 272.071,114.672 
					274.947,106.9 282.72,104.023 274.947,101.147 				"/>
				<polygon style="fill:#F7B500;" points="269.195,106.9 261.422,104.023 269.195,101.147 272.071,93.374 272.071,114.672 				"/>
			</g>
			<g>
				<polygon style="fill:#F7CE00;" points="291.929,78.56 289.787,84.347 284.001,86.488 289.787,88.629 291.929,94.416 
					294.07,88.629 299.856,86.488 294.07,84.347 				"/>
				<polygon style="fill:#F7B500;" points="289.787,88.629 284.001,86.488 289.787,84.347 291.929,78.56 291.929,94.416 				"/>
			</g>
			<g>
				<polygon style="fill:#F7CE00;" points="269.868,67.948 268.148,72.595 263.501,74.315 268.148,76.034 269.868,80.681 
					271.587,76.034 276.234,74.315 271.587,72.595 				"/>
				<polygon style="fill:#F7B500;" points="268.148,76.034 263.501,74.315 268.148,72.595 269.868,67.948 269.868,80.681 				"/>
			</g>
		</g>
	</g>
</g>
</svg>
