<svg xmlns="http://www.w3.org/2000/svg" viewBox="0 0 145.53 86.65"><defs><style>.cls-1{fill:#fff;}</style></defs><g id="Capa_2" data-name="Capa 2"><g id="Capa_1-2" data-name="Capa 1"><polygon class="cls-1" points="144.77 22.08 72.77 0 0.77 22.08 0.77 24.48 144.77 24.48 144.77 22.08"/><path class="cls-1" d="M14.57,72.57H7.45V30.81h7.12Z"/><path class="cls-1" d="M18.54,30.81h20.9v6.84H18.54Zm6.89,3.51h7.12V72.57H25.43Z"/><path class="cls-1" d="M42.83,30.81H50V72.57H42.83Zm4.08,35.07h6.26a2.86,2.86,0,0,0,2.06-.7,2.6,2.6,0,0,0,.73-2v-5.6a4.3,4.3,0,0,0-.33-1.77,2.41,2.41,0,0,0-1-1.12,3.06,3.06,0,0,0-1.58-.39H46.91v-6.6h6a2.46,2.46,0,0,0,2-.81,3.36,3.36,0,0,0,.71-2.29V40.15a2.66,2.66,0,0,0-.71-2,2.6,2.6,0,0,0-1.93-.7h-6V30.81h6.72a10.7,10.7,0,0,1,4.83,1,6.91,6.91,0,0,1,3.06,2.94,9.68,9.68,0,0,1,1,4.67v4.48a7.4,7.4,0,0,1-.72,3.34,6.17,6.17,0,0,1-2.09,2.39,8,8,0,0,1-3.28,1.25,8.73,8.73,0,0,1,3.57,1.23,6.32,6.32,0,0,1,2.27,2.49,7.64,7.64,0,0,1,.79,3.57v5.69a9.93,9.93,0,0,1-1,4.71,6.9,6.9,0,0,1-3,3,10.42,10.42,0,0,1-4.79,1H46.91Z"/><path class="cls-1" d="M74.6,30.81h5l10,41.76H82.5L77.1,45.2,71.7,72.57H64.63ZM71.41,59.42H82.78v6.66H71.41Z"/><path class="cls-1" d="M92.66,30.81h5.61l9.82,27.86-.78,1.12v-29h6.49V72.54h-5.65L98.44,46.29l.74-1.15v27.4H92.66Z"/><path class="cls-1" d="M118.92,30.81H126V72.57h-7.12Zm5.65,22.46,8.13-22.46h8L124.57,65.94Zm2.62-3.5,4.88-4.28,10,27.08h-7.81Z"/><rect class="cls-1" y="78.14" width="145.53" height="3.06"/><rect class="cls-1" y="83.59" width="145.53" height="3.06"/></g></g></svg>